<mxfile host="app.diagrams.net" modified="2021-03-15T17:09:45.257Z" agent="5.0 (Windows NT 10.0; Win64; x64) AppleWebKit/537.36 (KHTML, like Gecko) Chrome/89.0.4389.82 Safari/537.36" etag="tek2_dXrDu9u56BWwQlg" version="14.4.8" type="github">
  <diagram id="Xie-9tWe7YI_WEpgbt9P" name="Page-1">
    <mxGraphModel dx="1422" dy="762" grid="1" gridSize="10" guides="1" tooltips="1" connect="1" arrows="1" fold="1" page="1" pageScale="1" pageWidth="1169" pageHeight="1654" math="0" shadow="0">
      <root>
        <mxCell id="0" />
        <mxCell id="1" parent="0" />
        <mxCell id="CW6_wdNh50GNIlfXM0S9-59" style="edgeStyle=orthogonalEdgeStyle;rounded=0;orthogonalLoop=1;jettySize=auto;html=1;entryX=0;entryY=0.25;entryDx=0;entryDy=0;dashed=1;exitX=0;exitY=0.5;exitDx=0;exitDy=0;" parent="1" source="CW6_wdNh50GNIlfXM0S9-39" target="CW6_wdNh50GNIlfXM0S9-49" edge="1">
          <mxGeometry relative="1" as="geometry">
            <Array as="points">
              <mxPoint x="540" y="250" />
              <mxPoint x="520" y="250" />
              <mxPoint x="520" y="418" />
            </Array>
          </mxGeometry>
        </mxCell>
        <mxCell id="CW6_wdNh50GNIlfXM0S9-62" value="ajax" style="edgeLabel;html=1;align=center;verticalAlign=middle;resizable=0;points=[];" parent="CW6_wdNh50GNIlfXM0S9-59" vertex="1" connectable="0">
          <mxGeometry x="-0.2" y="-2" relative="1" as="geometry">
            <mxPoint as="offset" />
          </mxGeometry>
        </mxCell>
        <mxCell id="CW6_wdNh50GNIlfXM0S9-39" value="&lt;h1&gt;AuthForm.js, AuthForm.php&lt;/h1&gt;&lt;p&gt;Верстка формы входа.&lt;span style=&quot;text-align: center&quot;&gt;&lt;br&gt;&lt;/span&gt;&lt;/p&gt;&lt;p&gt;&lt;span style=&quot;text-align: center&quot;&gt;loadPersonalRoom,&lt;/span&gt;&lt;br style=&quot;text-align: center&quot;&gt;&lt;span style=&quot;text-align: center&quot;&gt;handlePersonalRoom:&lt;/span&gt;&lt;br style=&quot;text-align: center&quot;&gt;&lt;span style=&quot;text-align: center&quot;&gt;грузит шапку и прикрепляет его к idConteiner&lt;/span&gt;&lt;br&gt;&lt;/p&gt;" style="text;html=1;spacing=5;spacingTop=-20;whiteSpace=wrap;overflow=hidden;rounded=0;fillColor=#ffffff;strokeColor=#000000;" parent="1" vertex="1">
          <mxGeometry x="540" y="150" width="190" height="160" as="geometry" />
        </mxCell>
        <mxCell id="EqqO_55n0Yaofc_s7Z8x-2" value="" style="edgeStyle=orthogonalEdgeStyle;rounded=0;orthogonalLoop=1;jettySize=auto;html=1;" parent="1" source="CW6_wdNh50GNIlfXM0S9-41" target="CW6_wdNh50GNIlfXM0S9-42" edge="1">
          <mxGeometry relative="1" as="geometry" />
        </mxCell>
        <mxCell id="CW6_wdNh50GNIlfXM0S9-41" value="&lt;h1&gt;index.php&lt;/h1&gt;&lt;p&gt;Начало начал&lt;/p&gt;" style="text;html=1;spacing=5;spacingTop=-20;whiteSpace=wrap;overflow=hidden;rounded=0;fillColor=#ffffff;strokeColor=#000000;" parent="1" vertex="1">
          <mxGeometry x="40" y="190" width="190" height="80" as="geometry" />
        </mxCell>
        <mxCell id="EqqO_55n0Yaofc_s7Z8x-3" value="" style="edgeStyle=orthogonalEdgeStyle;rounded=0;orthogonalLoop=1;jettySize=auto;html=1;" parent="1" source="CW6_wdNh50GNIlfXM0S9-42" target="CW6_wdNh50GNIlfXM0S9-39" edge="1">
          <mxGeometry relative="1" as="geometry" />
        </mxCell>
        <mxCell id="CW6_wdNh50GNIlfXM0S9-42" value="&lt;h1&gt;MainForm.php, MainForm.js&lt;/h1&gt;&lt;p&gt;Плагины, загрузка формы входа&lt;/p&gt;&lt;p&gt;FavIcon???&lt;br&gt;&lt;/p&gt;" style="text;html=1;spacing=5;spacingTop=-20;whiteSpace=wrap;overflow=hidden;rounded=0;fillColor=#ffffff;strokeColor=#000000;" parent="1" vertex="1">
          <mxGeometry x="300" y="170" width="190" height="120" as="geometry" />
        </mxCell>
        <mxCell id="CW6_wdNh50GNIlfXM0S9-56" style="edgeStyle=orthogonalEdgeStyle;rounded=0;orthogonalLoop=1;jettySize=auto;html=1;entryX=0.5;entryY=1;entryDx=0;entryDy=0;" parent="1" source="CW6_wdNh50GNIlfXM0S9-49" target="CW6_wdNh50GNIlfXM0S9-39" edge="1">
          <mxGeometry relative="1" as="geometry" />
        </mxCell>
        <mxCell id="CW6_wdNh50GNIlfXM0S9-60" style="edgeStyle=orthogonalEdgeStyle;rounded=0;orthogonalLoop=1;jettySize=auto;html=1;entryX=0;entryY=0.5;entryDx=0;entryDy=0;dashed=1;" parent="1" source="CW6_wdNh50GNIlfXM0S9-49" target="CW6_wdNh50GNIlfXM0S9-51" edge="1">
          <mxGeometry relative="1" as="geometry">
            <Array as="points">
              <mxPoint x="518" y="445" />
              <mxPoint x="518" y="715" />
            </Array>
          </mxGeometry>
        </mxCell>
        <mxCell id="CW6_wdNh50GNIlfXM0S9-49" value="&lt;h1&gt;forms.php&lt;/h1&gt;&lt;p style=&quot;text-align: center&quot;&gt;В зависимости от формы входа разный контент&lt;/p&gt;" style="text;html=1;spacing=5;spacingTop=-20;whiteSpace=wrap;overflow=hidden;rounded=0;fillColor=#ffffff;strokeColor=#000000;" parent="1" vertex="1">
          <mxGeometry x="540" y="390" width="190" height="110" as="geometry" />
        </mxCell>
        <mxCell id="CW6_wdNh50GNIlfXM0S9-55" style="edgeStyle=orthogonalEdgeStyle;rounded=0;orthogonalLoop=1;jettySize=auto;html=1;entryX=0.5;entryY=1;entryDx=0;entryDy=0;" parent="1" source="CW6_wdNh50GNIlfXM0S9-51" target="CW6_wdNh50GNIlfXM0S9-49" edge="1">
          <mxGeometry relative="1" as="geometry" />
        </mxCell>
        <mxCell id="CW6_wdNh50GNIlfXM0S9-67" style="edgeStyle=orthogonalEdgeStyle;rounded=0;orthogonalLoop=1;jettySize=auto;html=1;entryX=0;entryY=0.5;entryDx=0;entryDy=0;dashed=1;" parent="1" source="CW6_wdNh50GNIlfXM0S9-51" target="CW6_wdNh50GNIlfXM0S9-65" edge="1">
          <mxGeometry relative="1" as="geometry">
            <Array as="points">
              <mxPoint x="508" y="800" />
              <mxPoint x="508" y="980" />
            </Array>
          </mxGeometry>
        </mxCell>
        <mxCell id="CW6_wdNh50GNIlfXM0S9-68" value="id кнопки" style="edgeLabel;html=1;align=center;verticalAlign=middle;resizable=0;points=[];" parent="CW6_wdNh50GNIlfXM0S9-67" vertex="1" connectable="0">
          <mxGeometry x="-0.1913" relative="1" as="geometry">
            <mxPoint as="offset" />
          </mxGeometry>
        </mxCell>
        <mxCell id="CW6_wdNh50GNIlfXM0S9-51" value="&lt;h1&gt;PCMain.php, PCMain.js&lt;/h1&gt;&lt;div&gt;Шапка, сайдбар, idStr&lt;/div&gt;&lt;div&gt;&lt;br&gt;&lt;/div&gt;&lt;div&gt;Так же PCMain.js имеет метод LoadForm, вызывается при нажатии на кнопки разделов. Этот метод присобачивает к контейнеру то, что вернет forms.PC&amp;nbsp;&amp;nbsp;&lt;/div&gt;" style="text;html=1;spacing=5;spacingTop=-20;whiteSpace=wrap;overflow=hidden;rounded=0;fillColor=#ffffff;strokeColor=#000000;" parent="1" vertex="1">
          <mxGeometry x="540" y="540" width="190" height="350" as="geometry" />
        </mxCell>
        <mxCell id="CW6_wdNh50GNIlfXM0S9-64" value="&lt;h1&gt;header(&#39;Location: &#39;.$URL)&lt;/h1&gt;&lt;p&gt;Штука делает ссылку сайта&lt;/p&gt;&lt;p&gt;(note: не смог редиректить на сторонние ресурсы, только на https://lk.tsu.tula.ru:3443/lktest/)&lt;/p&gt;" style="text;html=1;spacing=5;spacingTop=-20;whiteSpace=wrap;overflow=hidden;rounded=0;fillColor=#d5e8d4;strokeColor=#82b366;" parent="1" vertex="1">
          <mxGeometry x="850" y="20" width="300" height="110" as="geometry" />
        </mxCell>
        <mxCell id="CW6_wdNh50GNIlfXM0S9-66" value="" style="edgeStyle=orthogonalEdgeStyle;rounded=0;orthogonalLoop=1;jettySize=auto;html=1;" parent="1" source="CW6_wdNh50GNIlfXM0S9-65" target="CW6_wdNh50GNIlfXM0S9-51" edge="1">
          <mxGeometry relative="1" as="geometry" />
        </mxCell>
        <mxCell id="CW6_wdNh50GNIlfXM0S9-65" value="&lt;h1&gt;&lt;span&gt;formsPC.php&lt;/span&gt;&lt;br&gt;&lt;/h1&gt;&lt;div&gt;&lt;br&gt;&lt;/div&gt;&lt;div&gt;В зависимости от переданного id нажатой кнопки include_once .php файл раздела&lt;/div&gt;" style="text;html=1;spacing=5;spacingTop=-20;whiteSpace=wrap;overflow=hidden;rounded=0;fillColor=#f8cecc;strokeColor=#b85450;" parent="1" vertex="1">
          <mxGeometry x="540" y="920" width="190" height="120" as="geometry" />
        </mxCell>
        <mxCell id="EqqO_55n0Yaofc_s7Z8x-5" value="&lt;h1&gt;include()&lt;/h1&gt;&lt;div&gt;Наш бро для поключения контента&lt;/div&gt;" style="text;html=1;spacing=5;spacingTop=-20;whiteSpace=wrap;overflow=hidden;rounded=0;fillColor=#d5e8d4;strokeColor=#82b366;" parent="1" vertex="1">
          <mxGeometry x="850" y="140" width="300" height="80" as="geometry" />
        </mxCell>
      </root>
    </mxGraphModel>
  </diagram>
</mxfile>
